<?xml version="1.0" encoding="UTF-8" standalone="no"?>
<svg
   width="19"
   height="15"
   version="1.1"
   id="svg1"
   xmlns="http://www.w3.org/2000/svg"
   xmlns:svg="http://www.w3.org/2000/svg">
  <defs
     id="defs1" />
  <path
     id="path1-6-7-2-3"
     style="display:inline;fill:#3b7a41;fill-opacity:0.596111"
     d="M 10,0 A 1,1 0 0 0 9.2929688,0.29296875 l -2.5,2.50000005 A 1,1 0 0 1 7.5,2.5 h 8 a 1,1 0 0 1 1,1 V 10 H 18 A 1,1 0 0 0 19,9 V 1 A 1,1 0 0 0 18,0 Z M 6.5,6.5 A 1,1 0 0 0 6.1542969,6.5683594 L 7.390625,7.8046875 A 1,1 0 0 0 7.3359375,7.0566406 C 7.2246203,7.0225535 7.1828408,6.9343456 7.2148438,6.859375 A 1,1 0 0 0 7.1191406,6.7714844 C 7.0570113,6.7368808 6.9992714,6.6951298 6.9511719,6.6425781 A 1,1 0 0 0 6.5,6.5 Z" />
  <path
     id="path1-6-7-2"
     style="display:inline;fill:#3fbe4a;fill-opacity:0.846444"
     d="M 7.5,2.5 A 1,1 0 0 0 6.7929688,2.7929688 l -4,4 A 1,1 0 0 0 2.7109375,8.0957031 C 2.7879317,7.9834823 2.9319418,7.9019603 3.1347656,7.890625 c 0.090545,-0.00506 0.1917895,0.00456 0.3046875,0.03125 L 3.5449219,7.947266 C 3.6032657,7.9631709 3.6615026,7.9792821 3.71875,7.9980469 3.7144131,7.9824035 3.707536,7.9671796 3.7050781,7.9511719 3.6681089,7.7104233 3.7319616,7.437769 3.9238281,7.2714844 4.0043704,7.2016809 4.1102739,7.16561 4.203125,7.1132812 c 0.078053,-0.0028 0.1564556,-0.015393 0.234375,-0.015625 0.025973,-7.71e-5 0.052344,0.00223 0.078125,0.00586 0.1523091,0.021424 0.3031991,0.1147011 0.421875,0.2285156 0.05707,-0.020385 0.113735,-0.038363 0.1699219,-0.050781 0.080184,-0.017723 0.1627606,-0.022213 0.2441406,-0.033203 0.076964,0.0028 0.1355167,0.00395 0.1894531,0.00586 A 1,1 0 0 1 6.5,6.5 1,1 0 0 1 6.7207031,8.4609375 c 0.017444,0.012355 0.034044,0.023917 0.050781,0.037109 C 6.852655,8.5620267 6.9236558,8.6373655 7,8.7070312 7.060161,8.8355853 7.1797066,8.9498753 7.1816406,9.0917969 7.1887953,9.616814 6.7968903,9.80629 6.3554688,9.75 6.1738682,9.72684 6.0212828,9.65263 5.8613281,9.578125 c -0.019279,0.0014 -0.0388,0.00355 -0.058594,0.00195 -0.083062,0.01993 -0.2107487,0.026844 -0.2480469,0.027344 -0.052365,7.119e-4 -0.1306814,3.063e-4 -0.2070313,-0.011719 0.00179,0.00337 0.0041,0.00638 0.00586,0.00977 0.00901,0.017301 0.016859,0.035235 0.025391,0.052734 0.053404,0.021571 0.1062349,0.044834 0.1582032,0.070312 0.6570768,0.322147 0.5377902,0.903648 0.046875,0.941406 -0.023372,0.08892 -0.061095,0.162416 -0.1113282,0.216797 l 1.3203119,1.320312 A 1,1 0 0 0 7.5,12.5 h 8 a 1,1 0 0 0 1,-1 v -8 a 1,1 0 0 0 -1,-1 z M 4.2460938,8.0488281 c -0.03267,0.051274 -0.066324,0.095256 -0.099609,0.1386719 0.068215,0.039577 0.134619,0.082957 0.1972656,0.1328125 0.00518,-0.027747 0.010815,-0.055891 0.019531,-0.082031 6.501e-4,-0.00195 0.00127,-0.00393 0.00195,-0.00586 -7.495e-4,-0.00112 -0.00121,-0.00279 -0.00195,-0.00391 -0.0044,-0.00652 -0.00951,-0.012776 -0.013672,-0.019531 C 4.316226,8.1563556 4.2664147,8.1066627 4.2460938,8.0488281 Z" />
  <path
     fill="#8eef97"
     d="m 4.9997865,5 a 1,1 0 0 0 -0.707,0.293 l -4.00000005,4 a 1,1 0 0 0 0,1.414 l 4.00000005,4 a 1,1 0 0 0 0.707,0.293 h 8.0000005 a 1,1 0 0 0 1,-1 V 6 a 1,1 0 0 0 -1,-1 z m -1,4 a 1,1 0 0 1 0,2 1,1 0 0 1 0,-2 z"
     id="path1-9" />
</svg>
